<svg width="1280" height="400" viewBox="0 0 1280 400" fill="none" xmlns="http://www.w3.org/2000/svg" role="img" aria-label="RecrutaMe.AI — copiloto de candidatura com IA">
  <defs>
    <linearGradient id="bg" x1="0" y1="0" x2="1280" y2="400" gradientUnits="userSpaceOnUse">
      <stop offset="0" stop-color="#ffedd8"/>
      <stop offset="1" stop-color="#f3d5b5"/>
    </linearGradient>
    <linearGradient id="walnut" x1="0" y1="0" x2="0" y2="1">
      <stop offset="0" stop-color="#8b5e34"/>
      <stop offset="1" stop-color="#583101"/>
    </linearGradient>
    <linearGradient id="accent" x1="0" y1="0" x2="1" y2="0">
      <stop offset="0" stop-color="#a47148"/>
      <stop offset="1" stop-color="#8b5e34"/>
    </linearGradient>
    <filter id="soft" x="-20%" y="-20%" width="140%" height="140%">
      <feDropShadow dx="0" dy="6" stdDeviation="10" flood-color="#583101" flood-opacity="0.16"/>
    </filter>
    <style>
      .title  { font-family: 'Segoe UI', Helvetica, Arial, sans-serif; font-weight: 800; }
      .body   { font-family: 'Segoe UI', Helvetica, Arial, sans-serif; font-weight: 600; }
      .light  { font-family: 'Segoe UI', Helvetica, Arial, sans-serif; font-weight: 500; }
    </style>
  </defs>

  <!-- fundo -->
  <rect width="1280" height="400" rx="24" fill="url(#bg)"/>
  <rect x="0" y="0" width="1280" height="8" fill="url(#accent)"/>

  <!-- alvo (bullseye) decorativo à direita -->
  <g transform="translate(1010,200)" opacity="0.9">
    <circle r="150" fill="#e7bc91" opacity="0.45"/>
    <circle r="112" fill="none" stroke="#bc8a5f" stroke-width="10" opacity="0.55"/>
    <circle r="74"  fill="none" stroke="#a47148" stroke-width="10" opacity="0.7"/>
    <circle r="34"  fill="url(#walnut)"/>
    <!-- flecha acertando o alvo -->
    <g transform="rotate(-32)">
      <line x1="-210" y1="0" x2="6" y2="0" stroke="#583101" stroke-width="9" stroke-linecap="round"/>
      <polygon points="6,-14 34,0 6,14" fill="#583101"/>
      <polygon points="-210,-16 -186,0 -210,16" fill="#8b5e34"/>
      <polygon points="-192,-16 -168,0 -192,16" fill="#a47148"/>
    </g>
  </g>

  <!-- conteúdo à esquerda -->
  <g transform="translate(88,96)">
    <text class="body" x="2" y="0" font-size="18" letter-spacing="3" fill="#a47148">IA GENERATIVA · MERCADO PT-BR · CANDIDATOS TÉCNICOS</text>

    <text class="title" x="0" y="72" font-size="82" fill="#583101">RecrutaMe<tspan fill="#8b5e34">.AI</tspan></text>

    <text class="body" x="2" y="122" font-size="27" fill="#6f4518">Do currículo à oferta: seu copiloto de candidatura com IA.</text>
    <text class="light" x="2" y="156" font-size="19" fill="#8b5e34">Análise real, portfólio STAR e pacote de entrevista — tudo num só lugar.</text>

    <!-- chips de features -->
    <g transform="translate(0,196)" class="body" font-size="17">
      <g>
        <rect x="0" y="0" width="212" height="44" rx="22" fill="#fff7ec" stroke="#d4a276" stroke-width="1.5" filter="url(#soft)"/>
        <text x="106" y="28" text-anchor="middle" fill="#6f4518">Análise CV × Vaga</text>
      </g>
      <g transform="translate(228,0)">
        <rect x="0" y="0" width="186" height="44" rx="22" fill="#fff7ec" stroke="#d4a276" stroke-width="1.5" filter="url(#soft)"/>
        <text x="93" y="28" text-anchor="middle" fill="#6f4518">Portfólio STAR</text>
      </g>
      <g transform="translate(430,0)">
        <rect x="0" y="0" width="228" height="44" rx="22" fill="#fff7ec" stroke="#d4a276" stroke-width="1.5" filter="url(#soft)"/>
        <text x="114" y="28" text-anchor="middle" fill="#6f4518">Preparação de Entrevista</text>
      </g>
      <g transform="translate(0,58)">
        <rect x="0" y="0" width="212" height="44" rx="22" fill="#fff7ec" stroke="#d4a276" stroke-width="1.5" filter="url(#soft)"/>
        <text x="106" y="28" text-anchor="middle" fill="#6f4518">Kanban de Candidaturas</text>
      </g>
      <g transform="translate(228,58)">
        <rect x="0" y="0" width="186" height="44" rx="22" fill="#fff7ec" stroke="#d4a276" stroke-width="1.5" filter="url(#soft)"/>
        <text x="93" y="28" text-anchor="middle" fill="#6f4518">Contexto da Vaga</text>
      </g>
      <g transform="translate(430,58)">
        <rect x="0" y="0" width="228" height="44" rx="22" fill="#fff7ec" stroke="#d4a276" stroke-width="1.5" filter="url(#soft)"/>
        <text x="114" y="28" text-anchor="middle" fill="#6f4518">Insights do Funil</text>
      </g>
    </g>
  </g>
</svg>
